<svg width="132" height="132" viewBox="0 0 132 132" fill="none" xmlns="http://www.w3.org/2000/svg">
<rect width="132" height="132" rx="5" fill="url(#paint0_linear)"/>
<g filter="url(#filter0_d)">
<circle cx="67.5" cy="66.5" r="27" stroke="#DDDDDD" stroke-width="15"/>
</g>
<rect x="8" y="63" width="28" height="7" rx="2" fill="#DDDDDD"/>
<rect x="99" y="63" width="28" height="7" rx="2" fill="#DDDDDD"/>
<path d="M32.516 119.812C32.516 118.996 32.7 118.264 33.068 117.616C33.436 116.96 33.936 116.448 34.568 116.08C35.208 115.712 35.916 115.528 36.692 115.528C37.604 115.528 38.4 115.748 39.08 116.188C39.76 116.628 40.256 117.252 40.568 118.06H39.26C39.028 117.556 38.692 117.168 38.252 116.896C37.82 116.624 37.3 116.488 36.692 116.488C36.108 116.488 35.584 116.624 35.12 116.896C34.656 117.168 34.292 117.556 34.028 118.06C33.764 118.556 33.632 119.14 33.632 119.812C33.632 120.476 33.764 121.06 34.028 121.564C34.292 122.06 34.656 122.444 35.12 122.716C35.584 122.988 36.108 123.124 36.692 123.124C37.3 123.124 37.82 122.992 38.252 122.728C38.692 122.456 39.028 122.068 39.26 121.564H40.568C40.256 122.364 39.76 122.984 39.08 123.424C38.4 123.856 37.604 124.072 36.692 124.072C35.916 124.072 35.208 123.892 34.568 123.532C33.936 123.164 33.436 122.656 33.068 122.008C32.7 121.36 32.516 120.628 32.516 119.812ZM43.2855 118.492C43.4775 118.116 43.7495 117.824 44.1015 117.616C44.4615 117.408 44.8975 117.304 45.4095 117.304V118.432H45.1215C43.8975 118.432 43.2855 119.096 43.2855 120.424V124H42.1935V117.424H43.2855V118.492ZM52.3341 117.424L48.3741 127.096H47.2461L48.5421 123.928L45.8901 117.424H47.1021L49.1661 122.752L51.2061 117.424H52.3341ZM54.5238 118.636C54.7398 118.26 55.0598 117.948 55.4838 117.7C55.9158 117.444 56.4158 117.316 56.9838 117.316C57.5678 117.316 58.0958 117.456 58.5678 117.736C59.0478 118.016 59.4238 118.412 59.6958 118.924C59.9678 119.428 60.1038 120.016 60.1038 120.688C60.1038 121.352 59.9678 121.944 59.6958 122.464C59.4238 122.984 59.0478 123.388 58.5678 123.676C58.0958 123.964 57.5678 124.108 56.9838 124.108C56.4238 124.108 55.9278 123.984 55.4958 123.736C55.0718 123.48 54.7478 123.164 54.5238 122.788V127.12H53.4318V117.424H54.5238V118.636ZM58.9878 120.688C58.9878 120.192 58.8878 119.76 58.6878 119.392C58.4878 119.024 58.2158 118.744 57.8718 118.552C57.5358 118.36 57.1638 118.264 56.7558 118.264C56.3558 118.264 55.9838 118.364 55.6398 118.564C55.3038 118.756 55.0318 119.04 54.8238 119.416C54.6238 119.784 54.5238 120.212 54.5238 120.7C54.5238 121.196 54.6238 121.632 54.8238 122.008C55.0318 122.376 55.3038 122.66 55.6398 122.86C55.9838 123.052 56.3558 123.148 56.7558 123.148C57.1638 123.148 57.5358 123.052 57.8718 122.86C58.2158 122.66 58.4878 122.376 58.6878 122.008C58.8878 121.632 58.9878 121.192 58.9878 120.688ZM62.8732 118.324V122.2C62.8732 122.52 62.9412 122.748 63.0772 122.884C63.2132 123.012 63.4492 123.076 63.7852 123.076H64.5892V124H63.6052C62.9972 124 62.5412 123.86 62.2372 123.58C61.9332 123.3 61.7812 122.84 61.7812 122.2V118.324H60.9292V117.424H61.7812V115.768H62.8732V117.424H64.5892V118.324H62.8732ZM68.7803 124.108C68.1643 124.108 67.6043 123.968 67.1003 123.688C66.6043 123.408 66.2123 123.012 65.9243 122.5C65.6443 121.98 65.5043 121.38 65.5043 120.7C65.5043 120.028 65.6483 119.436 65.9363 118.924C66.2323 118.404 66.6323 118.008 67.1363 117.736C67.6403 117.456 68.2043 117.316 68.8283 117.316C69.4523 117.316 70.0163 117.456 70.5203 117.736C71.0243 118.008 71.4203 118.4 71.7083 118.912C72.0043 119.424 72.1523 120.02 72.1523 120.7C72.1523 121.38 72.0003 121.98 71.6963 122.5C71.4003 123.012 70.9963 123.408 70.4843 123.688C69.9723 123.968 69.4043 124.108 68.7803 124.108ZM68.7803 123.148C69.1723 123.148 69.5403 123.056 69.8843 122.872C70.2283 122.688 70.5043 122.412 70.7123 122.044C70.9283 121.676 71.0363 121.228 71.0363 120.7C71.0363 120.172 70.9323 119.724 70.7243 119.356C70.5163 118.988 70.2443 118.716 69.9083 118.54C69.5723 118.356 69.2083 118.264 68.8163 118.264C68.4163 118.264 68.0483 118.356 67.7123 118.54C67.3843 118.716 67.1203 118.988 66.9203 119.356C66.7203 119.724 66.6203 120.172 66.6203 120.7C66.6203 121.236 66.7163 121.688 66.9083 122.056C67.1083 122.424 67.3723 122.7 67.7003 122.884C68.0283 123.06 68.3883 123.148 68.7803 123.148ZM78.1241 124L74.6801 120.184V124H73.5881V115.636H74.6801V119.512L78.1361 115.636H79.5161L75.7241 119.824L79.5521 124H78.1241ZM86.7717 120.46C86.7717 120.668 86.7597 120.888 86.7357 121.12H81.4797C81.5197 121.768 81.7397 122.276 82.1397 122.644C82.5477 123.004 83.0397 123.184 83.6157 123.184C84.0877 123.184 84.4797 123.076 84.7917 122.86C85.1117 122.636 85.3357 122.34 85.4637 121.972H86.6397C86.4637 122.604 86.1117 123.12 85.5837 123.52C85.0557 123.912 84.3997 124.108 83.6157 124.108C82.9917 124.108 82.4317 123.968 81.9357 123.688C81.4477 123.408 81.0637 123.012 80.7837 122.5C80.5037 121.98 80.3637 121.38 80.3637 120.7C80.3637 120.02 80.4997 119.424 80.7717 118.912C81.0437 118.4 81.4237 118.008 81.9117 117.736C82.4077 117.456 82.9757 117.316 83.6157 117.316C84.2397 117.316 84.7917 117.452 85.2717 117.724C85.7517 117.996 86.1197 118.372 86.3757 118.852C86.6397 119.324 86.7717 119.86 86.7717 120.46ZM85.6437 120.232C85.6437 119.816 85.5517 119.46 85.3677 119.164C85.1837 118.86 84.9317 118.632 84.6117 118.48C84.2997 118.32 83.9517 118.24 83.5677 118.24C83.0157 118.24 82.5437 118.416 82.1517 118.768C81.7677 119.12 81.5477 119.608 81.4917 120.232H85.6437ZM94.2131 120.46C94.2131 120.668 94.2011 120.888 94.1771 121.12H88.9211C88.9611 121.768 89.1811 122.276 89.5811 122.644C89.9891 123.004 90.4811 123.184 91.0571 123.184C91.5291 123.184 91.9211 123.076 92.2331 122.86C92.5531 122.636 92.7771 122.34 92.9051 121.972H94.0811C93.9051 122.604 93.5531 123.12 93.0251 123.52C92.4971 123.912 91.8411 124.108 91.0571 124.108C90.4331 124.108 89.8731 123.968 89.3771 123.688C88.8891 123.408 88.5051 123.012 88.2251 122.5C87.9451 121.98 87.8051 121.38 87.8051 120.7C87.8051 120.02 87.9411 119.424 88.2131 118.912C88.4851 118.4 88.8651 118.008 89.3531 117.736C89.8491 117.456 90.4171 117.316 91.0571 117.316C91.6811 117.316 92.2331 117.452 92.7131 117.724C93.1931 117.996 93.5611 118.372 93.8171 118.852C94.0811 119.324 94.2131 119.86 94.2131 120.46ZM93.0851 120.232C93.0851 119.816 92.9931 119.46 92.8091 119.164C92.6251 118.86 92.3731 118.632 92.0531 118.48C91.7411 118.32 91.3931 118.24 91.0091 118.24C90.4571 118.24 89.9851 118.416 89.5931 118.768C89.2091 119.12 88.9891 119.608 88.9331 120.232H93.0851ZM96.7465 118.636C96.9625 118.26 97.2825 117.948 97.7065 117.7C98.1385 117.444 98.6385 117.316 99.2065 117.316C99.7905 117.316 100.318 117.456 100.79 117.736C101.27 118.016 101.646 118.412 101.918 118.924C102.19 119.428 102.326 120.016 102.326 120.688C102.326 121.352 102.19 121.944 101.918 122.464C101.646 122.984 101.27 123.388 100.79 123.676C100.318 123.964 99.7905 124.108 99.2065 124.108C98.6465 124.108 98.1505 123.984 97.7185 123.736C97.2945 123.48 96.9705 123.164 96.7465 122.788V127.12H95.6545V117.424H96.7465V118.636ZM101.21 120.688C101.21 120.192 101.11 119.76 100.91 119.392C100.71 119.024 100.438 118.744 100.094 118.552C99.7585 118.36 99.3865 118.264 98.9785 118.264C98.5785 118.264 98.2065 118.364 97.8625 118.564C97.5265 118.756 97.2545 119.04 97.0465 119.416C96.8465 119.784 96.7465 120.212 96.7465 120.7C96.7465 121.196 96.8465 121.632 97.0465 122.008C97.2545 122.376 97.5265 122.66 97.8625 122.86C98.2065 123.052 98.5785 123.148 98.9785 123.148C99.3865 123.148 99.7585 123.052 100.094 122.86C100.438 122.66 100.71 122.376 100.91 122.008C101.11 121.632 101.21 121.192 101.21 120.688Z" fill="url(#paint1_linear)"/>
<defs>
<filter id="filter0_d" x="29" y="32" width="77" height="77" filterUnits="userSpaceOnUse" color-interpolation-filters="sRGB">
<feFlood flood-opacity="0" result="BackgroundImageFix"/>
<feColorMatrix in="SourceAlpha" type="matrix" values="0 0 0 0 0 0 0 0 0 0 0 0 0 0 0 0 0 0 127 0"/>
<feOffset dy="4"/>
<feGaussianBlur stdDeviation="2"/>
<feColorMatrix type="matrix" values="0 0 0 0 0 0 0 0 0 0 0 0 0 0 0 0 0 0 0.25 0"/>
<feBlend mode="normal" in2="BackgroundImageFix" result="effect1_dropShadow"/>
<feBlend mode="normal" in="SourceGraphic" in2="effect1_dropShadow" result="shape"/>
</filter>
<linearGradient id="paint0_linear" x1="132" y1="0" x2="0" y2="132" gradientUnits="userSpaceOnUse">
<stop stop-color="#39C4FF"/>
<stop offset="1" stop-color="#0029FF" stop-opacity="0.31"/>
</linearGradient>
<linearGradient id="paint1_linear" x1="32" y1="111" x2="103" y2="129" gradientUnits="userSpaceOnUse">
<stop stop-color="#34B0F4"/>
<stop offset="1" stop-color="#77A2FF"/>
</linearGradient>
</defs>
</svg>
